PathFileType	4	(X/Y/Z)	C:/Users/beibeiliu/ov580/test_trc/User3\sequence.28_training_dense_right.trc
DataRate	CameraRate	NumFrames	NumMarkers	Units	OrigDataRate	OrigDataStartFrame	OrigNumFrames
120	120	12	19	mm	120	80	106
Frame#	Time	ThumbCMC			ThumbMCP			ThumbIP			ThumbTip			IndexMCP			IndexPIP			IndexTip			MiddleMCP			MiddlePIP			MiddleTip			RingMCP			RingPIP			RingTip			PinkyMCP			PinkyPIP			PinkyTip			BackHand1			BackHand2			BackHand3	
		X0	Y0	Z0	X1	Y1	Z1	X2	Y2	Z2	X3	Y3	Z3	X4	Y4	Z4	X5	Y5	Z5	X6	Y6	Z6	X7	Y7	Z7	X8	Y8	Z8	X9	Y9	Z9	X10	Y10	Z10	X11	Y11	Z11	X12	Y12	Z12	X13	Y13	Z13	X14	Y14	Z14	X15	Y15	Z15	X16	Y16	Z16	X17	Y17	Z17	X18	Y18	Z18	
79	0.658333	74.8927	-18.6903	-12.914	55.056	-16.4111	-32.4074	41.8774	-17.7831	-54.6579	28.5937	-17.1013	-74.5142	79.9561	-2.73458	-92.27	76.8194	1.03213	-115.719	68.6425	4.95103	-136.679	100.121	5.58029	-94.1952	98.0639	7.05936	-118.157	89.246	16.1977	-149.48	130.915	0.119973	-87.5095	138.097	-3.63714	-113.25	146.918	-10.789	-138.752	151.184	-0.0214867	-76.4382	152.07	-5.13067	-93.878	162.514	-4.0277	-116.543	122.428	15.1997	-35.7713	121.325	15.9968	-9.32931	92.008	4.84844	-23.4449	
80	0.666667	78.3542	-14.2398	-17.1589	58.2882	-14.0591	-40.7679	43.6849	-16.0712	-63.2584	27.9261	-19.1522	-77.83	86.1372	2.54302	-98.3285	78.389	1.87114	-121.179	74.0597	5.65087	-144.616	103.459	9.66345	-102.404	100.699	10.7575	-126.101	89.583	13.8595	-153.566	133.456	7.76488	-93.7219	139.623	1.58705	-116.72	148.209	-5.82723	-143.032	149.715	6.93801	-81.4535	158.248	1.95067	-101.469	165.776	-0.589437	-124.006	121.858	21.8021	-42.143	123.378	22.4839	-14.5389	93.4821	9.67782	-29.2462	
81	0.675	86.0426	-13.3952	-24.6672	68.966	-16.2306	-47.4434	53.8549	-19.1584	-71.4457	44.8338	-23.2165	-88.8293	95.5453	-6.83392	-105.335	92.1176	-10.0144	-129.124	88.9463	-8.71362	-154.576	117.021	1.98577	-112.415	114.262	-2.84275	-136.655	104.7	-3.71694	-162.883	147.1	-0.000634058	-100.893	152.268	-9.91401	-123.665	166.294	-20.9594	-144.748	162.029	-0.0648452	-87.0155	170.919	-7.08474	-103.671	176.594	-11.2446	-123.582	132.653	20.2949	-47.6922	134.201	26.1031	-20.2833	105.436	12.1992	-38.1867	
82	0.683333	87.2411	-17.8842	-27.6931	74.3996	-23.3936	-50.2129	63.1016	-29.735	-76.2504	49.8304	-35.7678	-91.6904	107.726	-26.0012	-107.67	103.407	-33.1107	-127.649	103.48	-37.6626	-149.972	124.365	-20.2978	-110.193	120.369	-29.4304	-129.7	116.94	-34.5362	-164.393	154.28	-22.5245	-100.559	160.752	-37.2143	-119.592	171.746	-51.154	-135.322	167.964	-18.1949	-82.5912	177.949	-30.3979	-98.9551	183.024	-38.7886	-116.387	141.654	9.03396	-56.6029	137.537	18.9078	-29.0425	109.65	2.81759	-45.0292	
83	0.691667	89.8873	-20.3181	-21.9991	71.8239	-29.8581	-45.9261	60.1277	-39.3235	-67.5924	47.2871	-47.3302	-83.6589	107.028	-46.1613	-97.2146	100.537	-60.8192	-119.094	98.2987	-71.336	-140.651	126.282	-43.0156	-102.269	122.422	-57.8093	-120.648	117.045	-70.1904	-148.297	150.547	-45.9899	-88.3211	159.107	-63.5054	-102.475	164.617	-86.7735	-120.592	166.985	-44.1662	-76.6435	172.283	-59.9572	-89.3201	178.227	-71.1144	-102.77	145.211	-4.35961	-53.4924	143.465	10.3644	-25.0408	111.241	-3.52609	-43.5816	
84	0.7	88.1378	-16.0863	-16.4764	72.7915	-27.4021	-38.3737	55.3466	-39.753	-60.8949	44.6809	-48.8717	-72.0258	95.4029	-59.815	-85.6279	94.5479	-78.1104	-101.921	90.6995	-92.8341	-120.678	117.494	-60.2243	-87.543	112.168	-79.487	-107.722	108.411	-96.4165	-130.923	141.396	-66.6498	-77.8089	149.618	-86.1552	-86.781	145.9	-110.653	-97.4889	160.426	-57.9807	-60.4731	164.695	-78.0241	-71.3404	162.214	-96.3883	-82.6694	140.28	-17.5729	-50.3225	144.977	2.21577	-26.5061	113.552	-9.16932	-39.9212	
85	0.708333	89.981	-3.55737	-14.0242	70.6894	-11.8947	-32.4714	55.8491	-25.8581	-53.3999	38.0096	-29.9585	-64.0879	88.3111	-56.375	-71.9251	79.9809	-75.5767	-86.7525	73.7981	-94.2211	-103.615	103.352	-65.6921	-77.9652	98.5434	-82.5923	-89.1622	85.6315	-104.26	-111.896	130.572	-75.0963	-63.0145	123.854	-93.2809	-70.2572	121.141	-121.316	-77.9804	145.819	-71.2178	-49.8544	144.348	-89.2805	-56.1261	135.726	-111.698	-64.8645	140.81	-20.6451	-40.9417	149.557	-0.138602	-19.0726	117.307	-2.52508	-32.7886	
86	0.716667	95.4411	17.0059	-14.7614	74.8468	15.6593	-32.0438	55.2561	5.9962	-55.9726	39.9602	5.14118	-64.1219	77.3842	-41.7813	-68.8934	65.5091	-56.595	-78.0141	54.0652	-78.2874	-95.4342	91.8444	-55.2055	-69.3712	76.6519	-71.8656	-81.1114	57.0621	-89.4493	-99.2636	108.578	-71.9682	-53.6255	94.4996	-88.6873	-59.8861	79.29	-110.823	-65.0081	125.131	-70.3216	-38.2084	114.409	-87.9583	-45.4097	104.804	-105.144	-51.9366	138.114	-24.5559	-35.8561	154.678	-3.65935	-18.4065	120.905	3.28524	-34.5155	
87	0.725	109.658	35.4883	-14.2643	90.2014	37.5717	-39.3349	69.8084	38.5871	-61.6103	55.5866	41.4191	-75.3642	74.337	-17.9045	-69.1316	57.2897	-26.9954	-80.3091	40.1651	-37.331	-96.6091	78.0828	-34.6571	-69.2984	59.4772	-42.3243	-79.4932	40.9121	-56.575	-97.2655	88.0579	-53.7512	-49.8045	70.6936	-69.3307	-54.0433	49.7421	-82.7447	-58.9668	103.193	-61.7308	-32.2858	86.653	-72.7183	-37.7506	70.6376	-89.8254	-44.5998	135.625	-21.6848	-31.6325	151.242	-8.08131	-13.5628	128.138	11.9082	-29.9842	
88	0.733333	128.359	44.7331	-14.8654	114.935	55.242	-41.766	99.5016	57.9704	-64.5597	87.3418	63.866	-82.1179	80.2449	5.86207	-71.6717	60.1365	0.430316	-89.097	41.5973	-2.79523	-106.582	76.3773	-14.447	-71.6424	58.721	-14.557	-84.0655	37.2766	-16.88	-107.566	72.4252	-28.6077	-51.1335	50.4514	-36.9621	-56.9689	25.0264	-46.9896	-61.9702	83.7215	-40.0048	-32.2474	62.4147	-48.9559	-38.0579	41.4005	-56.3909	-47.123	124.334	-17.303	-30.9562	146.36	-11.0303	-11.5786	135.388	14.9319	-31.3567	
89	0.741667	143.413	33.5842	-19.3476	140.534	45.7313	-42.842	133.522	54.8798	-71.5098	126.944	63.1412	-86.0025	91.3375	17.7525	-75.9121	76.8799	22.0121	-94.1848	57.5695	16.0084	-114.479	79.4081	0.497348	-72.8434	63.4709	7.0621	-93.0585	45.9693	10.2611	-118.215	64.6312	-9.26633	-52.9776	43.8848	-8.89905	-58.1131	20.2711	-3.63218	-69.6749	65.2231	-23.2024	-31.5868	49.0972	-19.7999	-39.9167	29.1954	-21.7866	-49.4073	115.507	-22.3381	-23.7381	133.059	-24.4133	-3.36004	138.732	4.30124	-31.3085	
90	0.75	152.619	6.42072	-13.7408	156.316	13.7753	-42.8327	156.74	20.6074	-72.1829	160.251	30.0027	-89.1154	104.92	2.91876	-80.7143	91.1468	6.23421	-97.7285	80.7952	7.68114	-120.328	85.3989	-8.97893	-74.0912	75.6617	0.176022	-97.3933	64.6494	2.28491	-122.75	64.2251	-11.3254	-53.6105	44.2561	0.06744	-69.1487	23.7381	10.5312	-81.8079	59.296	-16.04	-33.9904	41.1348	-9.64494	-44.5813	28.2126	-3.96225	-57.4628	102.297	-32.5913	-22.8786	120.418	-38.7454	6.0171	135.966	-20.8902	-25.0254	
